<svg width="1633" height="123" viewBox="0 0 1633 123" fill="none" xmlns="http://www.w3.org/2000/svg">
    <path fill-rule="evenodd" clip-rule="evenodd"
        d="M1491.5 29.3774C1479.91 55.0999 1454.04 73.0051 1424 73.0051C1393.95 73.0051 1368.09 55.0996 1356.5 29.377C1344.91 55.0994 1319.04 73.0046 1289 73.0046C1258.95 73.0046 1233.09 55.0991 1221.5 29.3765C1209.91 55.0986 1184.04 73.0042 1154 73.0042C1123.95 73.0042 1098.09 55.0984 1086.5 29.3757C1074.91 55.0979 1049.04 73.0037 1019 73.0037C988.955 73.0037 963.092 55.0979 951.5 29.3752C939.908 55.0974 914.045 73.0032 884 73.0032C853.955 73.0032 828.092 55.0974 816.5 29.3748C804.908 55.0969 779.045 73.0027 749 73.0027C718.955 73.0027 693.092 55.0969 681.5 29.3743C669.908 55.0964 644.045 73.0022 614 73.0022C583.955 73.0022 558.092 55.0964 546.5 29.3738C534.908 55.0959 509.045 73.0017 479 73.0017C448.955 73.0017 423.092 55.0959 411.5 29.3733C399.908 55.0955 374.045 73.0012 344 73.0012C313.955 73.0012 288.092 55.0955 276.5 29.3728C264.908 55.095 239.045 73.0007 209 73.0007C178.955 73.0007 153.092 55.095 141.5 29.3726C129.908 55.095 104.045 73.0002 74 73.0002C33.4647 73.0002 0.541626 40.4084 0.0065918 0H0V123H1633V0H1632.99C1632.46 40.4109 1599.54 73.0056 1559 73.0056C1528.95 73.0056 1503.09 55.0999 1491.5 29.3774Z"
        fill="#FCF0FC" />
</svg>