<svg viewBox="0 0 1633 75" fill="none" xmlns="http://www.w3.org/2000/svg">
  <path
    d="M148 -0.000223637C148 40.8688 114.869 73.9998 74 73.9998C33.1309 73.9998 0 40.8688 0 -0.000223637C44.5 -0.000223637 26.6309 -0.000488281 67.5 -0.000488281C108.369 -0.000488281 67.5 -6.38962e-05 148 -0.000223637Z"
    fill="#FCF0FC" />
  <path
    d="M283 0.000264645C283 40.8693 249.869 74.0003 209 74.0003C168.131 74.0003 135 40.8693 135 0.000264645C179.5 0.000264645 161.631 0 202.5 0C243.369 0 202.5 0.000424385 283 0.000264645Z"
    fill="#FCF0FC" />
  <path
    d="M418 0.000752926C418 40.8698 384.869 74.0007 344 74.0007C303.131 74.0007 270 40.8698 270 0.000752926C314.5 0.000752926 296.631 0.000488281 337.5 0.000488281C378.369 0.000488281 337.5 0.000912666 418 0.000752926Z"
    fill="#FCF0FC" />
  <path
    d="M553 0.00124121C553 40.8703 519.869 74.0012 479 74.0012C438.131 74.0012 405 40.8703 405 0.00124121C449.5 0.00124121 431.631 0.000976562 472.5 0.000976562C513.369 0.000976562 472.5 0.00140095 553 0.00124121Z"
    fill="#FCF0FC" />
  <path
    d="M688 0.00172949C688 40.8708 654.869 74.0017 614 74.0017C573.131 74.0017 540 40.8708 540 0.00172949C584.5 0.00172949 566.631 0.00146484 607.5 0.00146484C648.369 0.00146484 607.5 0.00188923 688 0.00172949Z"
    fill="#FCF0FC" />
  <path
    d="M823 0.00221777C823 40.8713 789.869 74.0022 749 74.0022C708.131 74.0022 675 40.8713 675 0.00221777C719.5 0.00221777 701.631 0.00195312 742.5 0.00195312C783.369 0.00195312 742.5 0.00237751 823 0.00221777Z"
    fill="#FCF0FC" />
  <path
    d="M958 0.00270605C958 40.8718 924.869 74.0027 884 74.0027C843.131 74.0027 810 40.8718 810 0.00270605C854.5 0.00270605 836.631 0.00244141 877.5 0.00244141C918.369 0.00244141 877.5 0.00286579 958 0.00270605Z"
    fill="#FCF0FC" />
  <path
    d="M1093 0.00319433C1093 40.8723 1059.87 74.0032 1019 74.0032C978.131 74.0032 945 40.8723 945 0.00319433C989.5 0.00319433 971.631 0.00292969 1012.5 0.00292969C1053.37 0.00292969 1012.5 0.00335407 1093 0.00319433Z"
    fill="#FCF0FC" />
  <path
    d="M1228 0.00368261C1228 40.8728 1194.87 74.0037 1154 74.0037C1113.13 74.0037 1080 40.8728 1080 0.00368261C1124.5 0.00368261 1106.63 0.00341797 1147.5 0.00341797C1188.37 0.00341797 1147.5 0.00384235 1228 0.00368261Z"
    fill="#FCF0FC" />
  <path
    d="M1363 0.00417089C1363 40.8732 1329.87 74.0042 1289 74.0042C1248.13 74.0042 1215 40.8732 1215 0.00417089C1259.5 0.00417089 1241.63 0.00390625 1282.5 0.00390625C1323.37 0.00390625 1282.5 0.00433064 1363 0.00417089Z"
    fill="#FCF0FC" />
  <path
    d="M1498 0.00465918C1498 40.8737 1464.87 74.0046 1424 74.0046C1383.13 74.0046 1350 40.8737 1350 0.00465918C1394.5 0.00465918 1376.63 0.00439453 1417.5 0.00439453C1458.37 0.00439453 1417.5 0.00481892 1498 0.00465918Z"
    fill="#FCF0FC" />
  <path
    d="M1633 0.00514746C1633 40.8742 1599.87 74.0051 1559 74.0051C1518.13 74.0051 1485 40.8742 1485 0.00514746C1529.5 0.00514746 1511.63 0.00488281 1552.5 0.00488281C1593.37 0.00488281 1552.5 0.0053072 1633 0.00514746Z"
    fill="#FCF0FC" />
</svg>